<svg width="40" height="40" viewBox="0 0 40 40" fill="none" xmlns="http://www.w3.org/2000/svg">
<circle cx="20" cy="20" r="19.5" stroke="#E2E2E2"/>
<path d="M16.2022 14.4583C16.7347 14.4583 17.2272 14.5 17.6772 14.6233C18.0855 14.6984 18.4753 14.8524 18.8247 15.0767C19.153 15.2825 19.3988 15.5717 19.5622 15.9425C19.7263 16.3133 19.808 16.7675 19.808 17.2617C19.808 17.8392 19.6855 18.3333 19.3988 18.7042C19.153 19.0758 18.743 19.405 18.2513 19.6525C18.948 19.8592 19.4805 20.23 19.808 20.7242C20.1363 21.2192 20.3413 21.8375 20.3413 22.5383C20.3413 23.1158 20.218 23.61 20.013 24.0225C19.808 24.435 19.4805 24.8058 19.1113 25.0533C18.7103 25.3186 18.267 25.5136 17.8005 25.63C17.3088 25.7542 16.8172 25.8367 16.3255 25.8367H10.833V14.4583H16.2022ZM15.8738 19.075C16.3247 19.075 16.6938 18.9517 16.9805 18.7458C17.2672 18.54 17.3905 18.1683 17.3905 17.715C17.3905 17.4675 17.3488 17.22 17.2672 17.0558C17.1855 16.8908 17.0622 16.7667 16.8988 16.6433C16.7347 16.5608 16.5705 16.4783 16.3655 16.4375C16.1605 16.3958 15.9563 16.3958 15.7097 16.3958H13.333V19.0758H15.8747L15.8738 19.075ZM15.9972 23.94C16.243 23.94 16.4888 23.8983 16.6938 23.8575C16.9008 23.8181 17.0966 23.7336 17.2672 23.61C17.4342 23.4894 17.5739 23.3349 17.6772 23.1567C17.7588 22.9508 17.8413 22.7033 17.8413 22.415C17.8413 21.8375 17.6772 21.425 17.3497 21.1367C17.0213 20.8892 16.5705 20.7658 16.038 20.7658H13.333V23.9408H15.9972V23.94ZM23.9072 23.8983C24.2347 24.2283 24.7263 24.3933 25.3822 24.3933C25.833 24.3933 26.243 24.27 26.5705 24.0642C26.8988 23.8167 27.1038 23.5692 27.1855 23.3217H29.1938C28.8655 24.3108 28.3738 25.0117 27.7188 25.465C27.0622 25.8775 26.2838 26.125 25.3413 26.125C24.7383 26.1268 24.1404 26.0149 23.5788 25.795C23.0736 25.6055 22.623 25.294 22.2672 24.8883C21.8866 24.5088 21.6053 24.0415 21.448 23.5275C21.243 22.9917 21.1605 22.415 21.1605 21.755C21.1605 21.1367 21.243 20.56 21.448 20.0233C21.6451 19.5067 21.9368 19.0314 22.308 18.6217C22.6772 18.2508 23.128 17.9217 23.6197 17.715C24.1669 17.4951 24.7515 17.383 25.3413 17.385C26.038 17.385 26.653 17.5092 27.1855 17.7975C27.7188 18.0858 28.128 18.4158 28.4563 18.9108C28.7913 19.3863 29.0408 19.9164 29.1938 20.4775C29.2755 21.0542 29.3163 21.6317 29.2755 22.2908H23.333C23.333 22.9508 23.5788 23.5692 23.9072 23.8992V23.8983ZM26.4888 19.57C26.2022 19.2817 25.7513 19.1167 25.218 19.1167C24.8497 19.1167 24.5622 19.1992 24.3163 19.3225C24.0705 19.4467 23.9072 19.6117 23.743 19.7767C23.5921 19.936 23.4923 20.1369 23.4563 20.3533C23.4147 20.56 23.3738 20.7242 23.3738 20.8892H27.0622C26.9805 20.2708 26.7755 19.8592 26.4888 19.57ZM22.8822 15.2417H27.4722V16.355H22.883V15.2417H22.8822Z" fill="white"/>
</svg>
