<svg width="40" height="40" viewBox="0 0 40 40" fill="none" xmlns="http://www.w3.org/2000/svg">
<circle cx="20" cy="20" r="19.5" stroke="#E2E2E2"/>
<path d="M20.0003 11.6667C15.3962 11.6667 11.667 15.3958 11.667 20C11.666 21.7494 12.216 23.4547 13.2388 24.8739C14.2617 26.2931 15.7054 27.3542 17.3653 27.9067C17.782 27.9792 17.9378 27.7292 17.9378 27.51C17.9378 27.3125 17.927 26.6567 17.927 25.9583C15.8337 26.3442 15.292 25.4483 15.1253 24.9792C15.0312 24.7392 14.6253 24 14.2712 23.8017C13.9795 23.6458 13.5628 23.26 14.2603 23.25C14.917 23.2392 15.3853 23.8542 15.542 24.1042C16.292 25.3642 17.4903 25.01 17.9687 24.7917C18.042 24.25 18.2603 23.8858 18.5003 23.6775C16.6462 23.4692 14.7087 22.75 14.7087 19.5625C14.7087 18.6558 15.0312 17.9067 15.5628 17.3225C15.4795 17.1142 15.1878 16.26 15.6462 15.1142C15.6462 15.1142 16.3437 14.8958 17.9378 15.9692C18.6162 15.7809 19.3171 15.6861 20.0212 15.6875C20.7295 15.6875 21.4378 15.7808 22.1045 15.9683C23.6978 14.885 24.3962 15.115 24.3962 15.115C24.8545 16.2608 24.5628 17.115 24.4795 17.3233C25.0103 17.9067 25.3337 18.6458 25.3337 19.5625C25.3337 22.7608 23.3862 23.4692 21.532 23.6775C21.8337 23.9375 22.0945 24.4375 22.0945 25.2192C22.0945 26.3333 22.0837 27.2292 22.0837 27.5108C22.0837 27.7292 22.2403 27.9892 22.657 27.9058C24.3112 27.3473 25.7486 26.2842 26.7669 24.866C27.7852 23.4478 28.3332 21.7459 28.3337 20C28.3337 15.3958 24.6045 11.6667 20.0003 11.6667Z" fill="white"/>
</svg>
