<svg width="40" height="40" viewBox="0 0 40 40" fill="none" xmlns="http://www.w3.org/2000/svg">
<circle cx="20" cy="20" r="19.5" stroke="#E2E2E2"/>
<path d="M15.7835 14.1666C15.7833 14.6087 15.6075 15.0325 15.2948 15.3449C14.9821 15.6573 14.5581 15.8327 14.116 15.8325C13.674 15.8323 13.2502 15.6565 12.9378 15.3437C12.6254 15.031 12.45 14.607 12.4502 14.165C12.4504 13.723 12.6262 13.2991 12.9389 12.9867C13.2517 12.6743 13.6757 12.4989 14.1177 12.4991C14.5597 12.4994 14.9836 12.6752 15.296 12.9879C15.6084 13.3006 15.7838 13.7246 15.7835 14.1666ZM15.8335 17.0666H12.5002V27.5H15.8335V17.0666ZM21.1002 17.0666H17.7835V27.5H21.0669V22.025C21.0669 18.975 25.0419 18.6916 25.0419 22.025V27.5H28.3335V20.8916C28.3335 15.75 22.4502 15.9416 21.0669 18.4666L21.1002 17.0666Z" fill="white"/>
</svg>
