<svg width="179" height="183" viewBox="0 0 179 183" fill="none" xmlns="http://www.w3.org/2000/svg">
<path d="M164.413 110.693L175.335 114.095L172.832 122.131L170.969 121.55L172.782 115.73L170.337 114.968L168.748 120.071L166.93 119.504L168.52 114.402L165.571 113.484L163.744 119.35L161.896 118.774L164.413 110.693Z" fill="white"/>
<path d="M161.05 120.668L164.798 126.62L171.204 125.946L170.056 128.288L165.88 128.593L165.866 128.622L168.184 132.11L167.071 134.38L163.665 128.969L156.608 129.734L157.798 127.306L162.576 127.046L162.59 127.017L159.882 123.053L161.05 120.668Z" fill="white"/>
<path d="M149.176 139.113L150.924 138.728C151 137.721 151.353 136.774 151.985 135.888C152.95 134.533 154.176 133.769 155.661 133.596C157.149 133.438 158.601 133.864 160.017 134.873C161.433 135.882 162.309 137.115 162.645 138.573C162.976 140.04 162.658 141.451 161.692 142.806C160.726 144.161 159.5 144.917 158.012 145.075C156.524 145.233 155.072 144.808 153.656 143.799C152.371 142.882 151.531 141.773 151.136 140.47L149.544 140.829L149.176 139.113ZM153.526 137.006C153.223 137.432 153.045 137.856 152.994 138.277L154.334 137.995L154.69 139.702L153.304 139.992C153.665 140.681 154.24 141.307 155.031 141.87C156.012 142.57 156.962 142.919 157.879 142.918C158.799 142.932 159.55 142.53 160.132 141.714C160.72 140.889 160.864 140.035 160.563 139.152C160.256 138.278 159.616 137.495 158.643 136.802C157.67 136.108 156.72 135.759 155.794 135.754C154.87 135.764 154.114 136.181 153.526 137.006Z" fill="white"/>
<path d="M144.044 145.144C145.082 144.1 146.106 143.539 147.116 143.461C148.134 143.39 149.086 143.795 149.971 144.675L155.473 150.147L153.837 151.792L148.335 146.32C147.382 145.372 146.401 145.405 145.393 146.418C144.889 146.925 144.642 147.439 144.651 147.959C144.66 148.479 144.884 148.958 145.322 149.394L150.802 154.844L149.166 156.489L143.664 151.016C142.786 150.144 142.376 149.202 142.434 148.191C142.484 147.188 143.021 146.172 144.044 145.144Z" fill="white"/>
<path d="M138.361 150.436L145.369 159.478L143.535 160.899L136.528 151.857L138.361 150.436Z" fill="white"/>
<path d="M128.462 156.838C129.797 156.055 130.996 155.729 132.061 155.858C133.132 155.997 133.993 156.58 134.645 157.607L132.686 158.757C132.276 158.206 131.821 157.904 131.32 157.851C130.81 157.804 130.201 157.988 129.492 158.404C128.931 158.733 128.53 159.104 128.29 159.517C128.055 159.939 128.065 160.366 128.319 160.799C128.41 160.955 128.514 161.08 128.63 161.172C128.743 161.28 128.89 161.341 129.073 161.358C129.261 161.383 129.417 161.397 129.542 161.398C129.672 161.409 129.88 161.373 130.166 161.292C130.457 161.22 130.676 161.16 130.821 161.112C130.971 161.073 131.245 160.993 131.644 160.87C132.126 160.723 132.527 160.606 132.846 160.517C133.156 160.435 133.523 160.374 133.946 160.336C134.36 160.304 134.717 160.323 135.018 160.394C135.316 160.479 135.618 160.636 135.925 160.864C136.237 161.101 136.509 161.418 136.741 161.813C137.297 162.761 137.378 163.69 136.985 164.601C136.588 165.526 135.823 166.321 134.692 166.985C133.569 167.643 132.515 167.902 131.531 167.762C130.546 167.623 129.728 167.082 129.077 166.141L130.996 165.016C131.332 165.462 131.75 165.711 132.251 165.764C132.742 165.822 133.25 165.697 133.775 165.389C134.317 165.071 134.688 164.711 134.886 164.311C135.084 163.91 135.08 163.535 134.875 163.186C134.654 162.809 134.335 162.624 133.92 162.633C133.496 162.647 132.832 162.801 131.929 163.096C131.391 163.275 130.943 163.408 130.586 163.494C130.233 163.589 129.834 163.657 129.387 163.696C128.937 163.75 128.558 163.737 128.252 163.657C127.936 163.583 127.619 163.422 127.301 163.176C126.98 162.944 126.698 162.621 126.455 162.207C125.883 161.232 125.789 160.26 126.174 159.293C126.559 158.325 127.321 157.507 128.462 156.838Z" fill="white"/>
<path d="M125.842 169.159L126.561 170.974L118.006 174.359L117.288 172.544L120.486 171.279L116.995 162.456L119.153 161.602L122.644 170.425L125.842 169.159Z" fill="white"/>
<path d="M111.168 164.355L113.755 175.499L105.557 177.402L105.115 175.501L111.053 174.122L110.474 171.629L105.269 172.837L104.838 170.982L110.044 169.774L109.345 166.766L103.361 168.155L102.923 166.269L111.168 164.355Z" fill="white"/>
<path d="M100.066 166.526L101.03 177.926L98.7183 178.121L97.917 168.651L92.5602 169.104L92.3969 167.175L100.066 166.526Z" fill="white"/>
<path d="M86.5963 166.901L86.3127 171.308L89.6618 178.562L87.139 178.399L85.6324 174.903L84.9868 173.227L84.9549 173.224C84.627 173.834 84.3366 174.36 84.0836 174.804L82.1733 178.08L79.7463 177.924L83.9975 171.159L84.2811 166.752L86.5963 166.901Z" fill="white"/>
<path d="M71.7063 164.626L68.3022 175.548L64.0404 174.22C62.5943 173.769 61.5969 172.883 61.048 171.561C60.496 170.249 60.4739 168.778 60.9817 167.149C61.5689 165.265 62.5953 164.015 64.0609 163.399C65.1252 162.96 66.3141 162.945 67.6278 163.355L71.7063 164.626ZM68.8962 165.845L67.1854 165.312C66.1772 164.998 65.3536 165.059 64.7144 165.497C64.0721 165.945 63.5763 166.729 63.2272 167.849C62.878 168.969 62.8447 169.936 63.1272 170.751C63.3964 171.572 63.9892 172.125 64.9057 172.411L66.6776 172.963L68.8962 165.845Z" fill="white"/>
<path d="M60.3186 160.637L55.2833 170.909L47.7264 167.205L48.5856 165.452L54.0593 168.135L55.1861 165.837L50.3876 163.485L51.2256 161.775L56.0241 164.127L57.3833 161.354L51.8665 158.65L52.7186 156.912L60.3186 160.637Z" fill="white"/>
<path d="M46.8723 152.609C48.1406 153.494 48.9384 154.448 49.2657 155.47C49.5869 156.501 49.417 157.527 48.756 158.548L46.8929 157.248C47.2224 156.645 47.3065 156.106 47.145 155.629C46.9749 155.146 46.553 154.669 45.8795 154.199C45.346 153.827 44.8415 153.618 44.3661 153.572C43.8845 153.535 43.5003 153.722 43.2134 154.133C43.1096 154.282 43.0398 154.428 43.0042 154.572C42.9537 154.719 42.9592 154.879 43.0206 155.052C43.0759 155.234 43.1289 155.382 43.1798 155.495C43.2245 155.617 43.3436 155.792 43.537 156.018C43.7243 156.252 43.8701 156.426 43.9742 156.537C44.0722 156.658 44.2599 156.873 44.5374 157.184C44.8726 157.561 45.1469 157.876 45.3605 158.129C45.5653 158.376 45.7733 158.684 45.9843 159.053C46.1867 159.415 46.3186 159.748 46.3802 160.051C46.4269 160.357 46.4108 160.697 46.3318 161.071C46.2466 161.454 46.0728 161.833 45.8103 162.209C45.1815 163.11 44.3711 163.572 43.3794 163.595C42.3727 163.621 41.3315 163.259 40.2556 162.508C39.1886 161.763 38.5128 160.914 38.2284 159.961C37.944 159.008 38.0934 158.039 38.6767 157.054L40.5004 158.327C40.2354 158.819 40.1836 159.303 40.3451 159.78C40.4977 160.251 40.8234 160.66 41.3219 161.008C41.838 161.368 42.3193 161.555 42.7658 161.567C43.2124 161.58 43.5517 161.42 43.7837 161.087C44.034 160.729 44.0684 160.363 43.887 159.989C43.6969 159.609 43.2794 159.07 42.6344 158.373C42.2467 157.959 41.9391 157.608 41.7115 157.319C41.4778 157.039 41.2498 156.704 41.0273 156.315C40.7899 155.928 40.6435 155.578 40.5881 155.267C40.5239 154.949 40.5374 154.594 40.6286 154.202C40.705 153.813 40.8805 153.422 41.1553 153.028C41.8024 152.101 42.6459 151.61 43.6857 151.556C44.7255 151.501 45.7877 151.852 46.8723 152.609Z" fill="white"/>
<path d="M40.6562 147.986L32.9572 156.448L31.2412 154.887L38.9402 146.425L40.6562 147.986Z" fill="white"/>
<path d="M29.9229 136.493L28.7984 137.543L28.8189 137.567C30.1783 137.345 31.3212 137.784 32.2475 138.887C33.3247 140.169 33.7612 141.551 33.5568 143.032C33.3455 144.505 32.5784 145.798 31.2554 146.909C29.7527 148.172 28.1589 148.696 26.4741 148.481C25.1869 148.309 24.063 147.651 23.1024 146.508C22.2035 145.438 21.7519 144.361 21.7475 143.278C21.7363 142.187 22.1141 141.194 22.8808 140.299L24.3423 142.039C23.9904 142.515 23.8245 143.031 23.8445 143.585C23.8563 144.147 24.0887 144.697 24.5415 145.236C25.2071 146.028 26.0116 146.397 26.9551 146.343C27.8918 146.28 28.8174 145.865 29.7321 145.096C30.6386 144.335 31.1966 143.49 31.4059 142.561C31.6084 141.625 31.3974 140.785 30.773 140.042C30.2241 139.389 29.5711 139.018 28.8142 138.929C28.049 138.848 27.4092 139.023 26.8947 139.455L26.8457 139.497L28.6159 141.604L27.2439 142.756L24.146 139.069L28.8011 135.158L29.9229 136.493Z" fill="white"/>
<path d="M27.414 132.818L17.5738 138.652L16.3742 136.629L19.9233 130.098C20.0248 129.914 20.1577 129.698 20.3218 129.452C20.4804 129.197 20.6187 128.991 20.7366 128.834L20.8915 128.594L20.8752 128.566C20.218 129.005 19.66 129.361 19.2013 129.633L14.0403 132.693L12.8734 130.725L22.7136 124.89L23.8561 126.817L20.411 133.399C20.3094 133.583 20.1839 133.8 20.0344 134.05C19.8758 134.305 19.7375 134.511 19.6196 134.668L19.4647 134.908L19.481 134.936C20.1474 134.491 20.7099 134.133 21.1687 133.861L26.2471 130.85L27.414 132.818Z" fill="white"/>
<path d="M21.6249 122.231L11.0077 126.491L7.87365 118.681L9.68525 117.954L11.9554 123.611L14.3312 122.658L12.3412 117.698L14.1082 116.989L16.0983 121.949L18.9642 120.799L16.6762 115.097L18.4729 114.376L21.6249 122.231Z" fill="white"/>
<path d="M17.7622 111.641L6.61815 114.227L5.60931 109.878C5.26701 108.403 5.52732 107.094 6.39025 105.952C7.2428 104.813 8.50032 104.05 10.1628 103.664C12.0851 103.218 13.6824 103.472 14.9547 104.425C15.8718 105.121 16.4858 106.139 16.7967 107.48L17.7622 111.641ZM15.2896 109.833L14.8846 108.088C14.646 107.059 14.1763 106.379 13.4755 106.049C12.7644 105.722 11.8373 105.69 10.6944 105.955C9.55139 106.221 8.70006 106.681 8.14037 107.336C7.56788 107.984 7.39012 108.775 7.60707 109.71L8.02651 111.518L15.2896 109.833Z" fill="white"/>
<path d="M15.5223 99.9667L13.2149 100.208L12.9722 97.8844L15.2797 97.6434L15.5223 99.9667Z" fill="white"/>
<path d="M15.6102 81.011L4.3418 79.0367L5.75559 70.9676L7.69406 71.3072L6.68066 77.0911L9.39137 77.5661L10.2501 72.6647L12.2044 73.0071L11.3456 77.9085L16.0105 78.7258L15.6102 81.011Z" fill="white"/>
<path d="M19.494 60.9999C20.2159 62.3094 20.3057 63.7507 19.7633 65.3238C19.2209 66.897 18.2601 67.9817 16.8811 68.5781C15.4954 69.1609 13.9807 69.169 12.337 68.6022C10.6933 68.0355 9.50547 67.0956 8.77347 65.7826C8.04496 64.4596 7.9519 63.0115 8.49431 61.4383C9.03671 59.8652 10.0007 58.7873 11.3864 58.2044C12.7721 57.6216 14.2868 57.6136 15.9305 58.1803C17.5742 58.7471 18.762 59.6869 19.494 60.9999ZM16.1278 66.5413C17.0246 66.2638 17.6382 65.6461 17.9685 64.6881C18.2988 63.7301 18.1979 62.8773 17.6659 62.1297C17.1238 61.3787 16.288 60.8084 15.1586 60.419C14.0292 60.0296 13.0195 59.9635 12.1297 60.2209C11.2399 60.4782 10.6298 61.0859 10.2995 62.0439C9.96922 63.0018 10.0716 63.8665 10.6068 64.6377C11.1455 65.3988 11.9795 65.9741 13.1089 66.3636C14.2282 66.7495 15.2345 66.8088 16.1278 66.5413Z" fill="white"/>
<path d="M22.4792 58.0221L12.4154 52.582L14.911 47.9654C15.4335 46.9989 16.1125 46.3596 16.9482 46.0474C17.7889 45.7258 18.6268 45.7908 19.4619 46.2422C20.7475 46.9371 21.2269 47.9905 20.9002 49.4023L20.9425 49.4251C21.3419 49.0227 21.7599 48.7878 22.1963 48.7206C22.6285 48.639 23.1626 48.7276 23.7986 48.9866C24.034 49.0895 24.3115 49.2153 24.6313 49.364C24.9468 49.4981 25.1962 49.6087 25.3796 49.6957C25.568 49.7733 25.7565 49.8509 25.9449 49.9285C26.1384 49.9967 26.2969 50.04 26.4204 50.0583C26.5396 50.0621 26.631 50.0387 26.6947 49.9883L26.7932 50.0415L25.7356 51.998C25.6966 52.0254 25.646 52.0404 25.5838 52.0432C25.5123 52.041 25.4246 52.0238 25.3206 51.9919C25.2166 51.9599 25.1126 51.928 25.0087 51.896C24.9004 51.8496 24.7661 51.7952 24.6058 51.7328C24.4412 51.656 24.3001 51.5918 24.1824 51.5403C24.0553 51.4837 23.8929 51.4141 23.6951 51.3314C23.493 51.2343 23.3331 51.16 23.2154 51.1085C22.025 50.5741 21.0975 50.9216 20.433 52.1508L19.5428 53.7976L23.5824 55.9812L22.4792 58.0221ZM15.1655 51.4313L17.9664 52.9454L19.1381 50.7779C19.4273 50.243 19.5212 49.7663 19.42 49.3479C19.3239 48.92 19.0694 48.5945 18.6566 48.3714C18.2343 48.1431 17.8183 48.094 17.4084 48.2241C16.9986 48.3542 16.6517 48.682 16.3676 49.2075L15.1655 51.4313Z" fill="white"/>
<path d="M24.7466 36.9343L23.29 35.6347L29.4149 28.7699L30.8714 30.0694L28.5813 32.6362L35.661 38.9528L34.1165 40.684L27.0367 34.3674L24.7466 36.9343Z" fill="white"/>
<path d="M39.9891 34.641L32.7187 25.8084L34.51 24.334L37.3571 27.7929L40.8284 24.9356L37.9813 21.4767L39.7725 20.0023L47.0429 28.8349L45.2516 30.3093L42.0486 26.418L38.5773 29.2753L41.7803 33.1666L39.9891 34.641Z" fill="white"/>
<path d="M49.566 27.3017L43.7329 17.4605L50.9726 13.1693L51.9679 14.8485L46.7239 17.9568L48.0292 20.159L52.6264 17.4342L53.5972 19.0721L49.0001 21.7969L50.5746 24.4533L55.8599 21.3206L56.8471 22.986L49.566 27.3017Z" fill="white"/>
<path d="M64.9409 19.5467L61.6995 8.57552L64.8298 7.65071L68.007 12.7015C68.2404 13.0774 68.4875 13.4994 68.7481 13.9674C69.0159 14.4221 69.2228 14.7837 69.3688 15.0519L69.5725 15.4589L69.6031 15.4499C69.4862 14.3388 69.4196 13.2851 69.4034 12.2889L69.3257 6.32244L72.5019 5.38404L75.7433 16.3552L73.6718 16.9672L71.8131 10.6761L71.2343 8.3779L71.2036 8.38697C71.2938 9.29461 71.3407 10.0371 71.3444 10.6143L71.3702 17.6472L69.2373 18.2774L65.4829 12.3461L64.3907 10.3998L64.36 10.4088C64.6934 11.3114 64.9477 12.0593 65.123 12.6526L66.9817 18.9438L64.9409 19.5467Z" fill="white"/>
<path d="M87.6549 13.5967C86.7787 14.8084 85.5135 15.5046 83.8594 15.6854C82.2052 15.8662 80.8142 15.4603 79.6863 14.4676C78.5679 13.4632 77.9143 12.0968 77.7254 10.3684C77.5365 8.64002 77.8795 7.16468 78.7546 5.94237C79.6402 4.7189 80.9101 4.01677 82.5643 3.83598C84.2184 3.65519 85.6047 4.06701 86.7231 5.07144C87.8415 6.07587 88.4952 7.44228 88.6841 9.17065C88.873 10.899 88.5299 12.3744 87.6549 13.5967ZM81.2069 12.9172C81.8406 13.6098 82.6611 13.901 83.6684 13.791C84.6757 13.6809 85.4039 13.2257 85.853 12.4255C86.3009 11.6147 86.4599 10.6155 86.3301 9.42793C86.2003 8.24034 85.8292 7.29909 85.2167 6.60418C84.6043 5.90928 83.7944 5.61688 82.787 5.72697C81.7797 5.83707 81.0415 6.29868 80.5724 7.11179C80.1139 7.92374 79.9495 8.92352 80.0793 10.1111C80.208 11.2881 80.5838 12.2235 81.2069 12.9172Z" fill="white"/>
<path d="M91.622 15.0257L92.2471 3.60278L97.4873 3.88957C98.5843 3.94961 99.4523 4.29089 100.091 4.9134C100.741 5.5365 101.04 6.322 100.988 7.26992C100.908 8.72907 100.16 9.61218 98.7437 9.91924L98.741 9.96717C99.2755 10.1567 99.6662 10.4344 99.9133 10.8005C100.172 11.1565 100.319 11.6773 100.357 12.363C100.364 12.6198 100.369 12.9245 100.371 13.2772C100.384 13.6197 100.39 13.8925 100.39 14.0954C100.4 14.299 100.41 14.5025 100.421 14.706C100.441 14.9101 100.47 15.0719 100.506 15.1914C100.554 15.3009 100.614 15.3736 100.687 15.4096L100.68 15.5215L98.4597 15.3999C98.4183 15.3763 98.3831 15.337 98.354 15.282C98.3256 15.2163 98.3036 15.1296 98.2881 15.022C98.2727 14.9143 98.2572 14.8066 98.2417 14.699C98.2375 14.5812 98.2294 14.4366 98.2174 14.265C98.2166 14.0833 98.2145 13.9283 98.2108 13.7999C98.2077 13.6609 98.2014 13.4843 98.1917 13.2701C98.1933 13.0458 98.1923 12.8695 98.1886 12.7411C98.1639 11.4365 97.4539 10.746 96.0586 10.6696L94.1894 10.5673L93.9385 15.1525L91.622 15.0257ZM94.4614 5.59877L94.2874 8.77801L96.7477 8.91266C97.3548 8.94589 97.826 8.82746 98.1612 8.55738C98.5071 8.28788 98.6929 7.91881 98.7186 7.45018C98.7448 6.9709 98.6116 6.57369 98.3191 6.25857C98.0265 5.94344 97.582 5.76956 96.9856 5.73692L94.4614 5.59877Z" fill="white"/>
<path d="M103.622 16.0833L106.043 4.90245L110.406 5.84723C111.886 6.1678 112.958 6.96205 113.622 8.22997C114.289 9.48748 114.441 10.9502 114.08 12.6182C113.662 14.5469 112.751 15.8829 111.346 16.6263C110.325 17.1583 109.142 17.2787 107.797 16.9874L103.622 16.0833ZM106.312 14.6196L108.064 14.9989C109.096 15.2224 109.911 15.0878 110.509 14.5952C111.109 14.0921 111.533 13.2672 111.781 12.1204C112.03 10.9737 111.977 10.0073 111.623 9.22133C111.282 8.42718 110.643 7.92851 109.704 7.72533L107.89 7.33252L106.312 14.6196Z" fill="white"/>
<path d="M115.318 19.0458L119.422 8.36709L127.278 11.386L126.577 13.2081L120.887 11.0214L119.969 13.411L124.957 15.328L124.274 17.1052L119.286 15.1883L118.178 18.0708L123.913 20.2747L123.219 22.0819L115.318 19.0458Z" fill="white"/>
<path d="M125.706 23.4222L131.396 13.4972L135.949 16.1072C136.902 16.6536 137.524 17.3484 137.815 18.1915C138.116 19.04 138.03 19.8761 137.558 20.6997C136.831 21.9675 135.766 22.4205 134.363 22.0587L134.339 22.1003C134.731 22.5097 134.956 22.9334 135.012 23.3714C135.083 23.8054 134.981 24.3371 134.706 24.9665C134.597 25.1992 134.465 25.4736 134.308 25.7896C134.166 26.1016 134.049 26.3482 133.958 26.5293C133.875 26.7158 133.793 26.9022 133.711 27.0887C133.638 27.2804 133.591 27.4378 133.569 27.5608C133.563 27.6799 133.584 27.7718 133.632 27.8367L133.577 27.9339L131.647 26.8278C131.621 26.7881 131.607 26.7372 131.606 26.675C131.61 26.6035 131.629 26.5162 131.664 26.4131C131.698 26.3099 131.733 26.2068 131.767 26.1036C131.816 25.9965 131.874 25.8637 131.941 25.705C132.021 25.5424 132.089 25.4029 132.144 25.2865C132.203 25.1609 132.277 25.0003 132.364 24.8046C132.467 24.6049 132.545 24.4469 132.599 24.3306C133.163 23.1539 132.839 22.218 131.627 21.5231L130.003 20.5921L127.719 24.576L125.706 23.4222ZM132.477 16.2751L130.894 19.0374L133.032 20.2628C133.559 20.5652 134.033 20.671 134.454 20.5803C134.884 20.4949 135.216 20.2486 135.449 19.8414C135.688 19.425 135.747 19.0103 135.628 18.5974C135.508 18.1844 135.189 17.8294 134.671 17.5323L132.477 16.2751Z" fill="white"/>
<path d="M135.952 29.757L143.138 20.855L144.968 22.3323L143.921 29.6917C143.89 29.8998 143.841 30.1478 143.773 30.4357C143.714 30.7303 143.656 30.9716 143.6 31.1596L143.539 31.4392L143.564 31.4593C144.026 30.8183 144.425 30.2903 144.76 29.8753L148.529 25.2064L150.309 26.6435L143.124 35.5454L141.381 34.1385L142.312 26.7686C142.343 26.5605 142.385 26.3133 142.438 26.027C142.498 25.7324 142.555 25.4911 142.611 25.3031L142.672 25.0235L142.647 25.0034C142.178 25.6527 141.776 26.1849 141.441 26.5999L137.733 31.194L135.952 29.757Z" fill="white"/>
<path d="M149.141 41.9946L158.324 35.1723L160.271 37.7923L156.624 42.515C156.351 42.8637 156.04 43.2409 155.69 43.6468C155.356 44.0549 155.088 44.3737 154.886 44.6032L154.574 44.9345L154.593 44.9602C155.596 44.4677 156.562 44.0422 157.492 43.6838L163.066 41.5555L165.042 44.214L155.858 51.0364L154.57 49.3026L159.836 45.3904L161.794 44.0553L161.775 44.0296C160.954 44.427 160.273 44.7268 159.733 44.9292L153.139 47.3761L151.813 45.5908L156.088 40.023L157.539 38.3271L157.52 38.3014C156.787 38.9253 156.173 39.4217 155.676 39.7907L150.41 43.7028L149.141 41.9946Z" fill="white"/>
<path d="M156.899 53.095L168.91 51.5198L169.988 53.6644L161.575 62.4026L160.49 60.2437L162.319 58.4657L160.466 54.777L157.955 55.1967L156.899 53.095ZM165.702 53.9014L162.297 54.4659L163.655 57.1681L166.14 54.7736L167.505 53.5689L167.49 53.5403C166.718 53.7135 166.122 53.8338 165.702 53.9014Z" fill="white"/>
<path d="M162.32 64.7765L173.225 61.3201L173.936 63.5622L169.001 69.1211C168.86 69.2775 168.682 69.4571 168.466 69.6597C168.254 69.8724 168.073 70.0418 167.922 70.1677L167.717 70.3671L167.727 70.3976C168.466 70.1185 169.09 69.8983 169.599 69.7372L175.318 67.9244L176.009 70.1054L165.104 73.5618L164.427 71.4265L169.272 65.7955C169.413 65.639 169.584 65.456 169.787 65.2465C169.999 65.0337 170.18 64.8644 170.331 64.7384L170.536 64.5391L170.526 64.5085C169.777 64.7909 169.147 65.0127 168.639 65.1738L163.011 66.9576L162.32 64.7765Z" fill="white"/>
</svg>
