<svg width="187" height="50" viewBox="0 0 187 50" fill="none" xmlns="http://www.w3.org/2000/svg">
<path d="M2.208 29.776C1.312 29.776 0.656 29.648 0.24 29.392C0.144 29.328 0.08 29.232 0.048 29.104C0.016 28.944 0.032 28.816 0.096 28.72C0.256 28.464 0.48 28.416 0.768 28.576C1.216 28.832 2.016 28.896 3.168 28.768C4.352 28.64 5.76 28.432 7.392 28.144L9.216 27.856C10.048 26.032 10.832 24.384 11.568 22.912C12.304 21.44 12.992 20.144 13.632 19.024C15.52 15.824 17.008 14.112 18.096 13.888C18.448 13.824 18.752 13.92 19.008 14.176C19.264 14.432 19.424 14.848 19.488 15.424C19.552 16 19.52 16.832 19.392 17.92C19.264 18.784 19.104 19.76 18.912 20.848C18.752 21.936 18.544 23.136 18.288 24.448L17.856 26.896C18.944 26.8 20.08 26.752 21.264 26.752C21.584 26.752 21.744 26.912 21.744 27.232C21.744 27.552 21.584 27.712 21.264 27.712C20.016 27.712 18.816 27.76 17.664 27.856C17.312 29.68 17.008 31.536 16.752 33.424C16.496 35.312 16.336 37.12 16.272 38.848C16.24 40.544 16.336 42.096 16.56 43.504C16.816 44.912 17.296 46.032 18 46.864C18.736 47.792 19.824 48.256 21.264 48.256C21.584 48.256 21.744 48.416 21.744 48.736C21.744 49.056 21.584 49.216 21.264 49.216C19.536 49.216 18.192 48.624 17.232 47.44C16.464 46.512 15.92 45.216 15.6 43.552C15.312 41.856 15.248 39.76 15.408 37.264C15.536 35.728 15.712 34.176 15.936 32.608C16.16 31.04 16.4 29.472 16.656 27.904C15.408 28 14.208 28.128 13.056 28.288C11.936 28.448 10.88 28.608 9.888 28.768L9.552 29.44C8.752 31.232 8 32.976 7.296 34.672C6.592 36.368 5.968 37.888 5.424 39.232C4.88 40.576 4.448 41.664 4.128 42.496C3.808 43.296 3.648 43.712 3.648 43.744C3.52 44.064 3.312 44.16 3.024 44.032C2.736 43.904 2.656 43.696 2.784 43.408C2.784 43.376 2.944 42.96 3.264 42.16C3.584 41.328 4 40.24 4.512 38.896C5.056 37.552 5.68 36.032 6.384 34.336C7.12 32.608 7.888 30.848 8.688 29.056L8.784 28.912C8.56 28.976 8.352 29.024 8.16 29.056C7.968 29.056 7.776 29.072 7.584 29.104C6.464 29.296 5.44 29.456 4.512 29.584C3.616 29.712 2.848 29.776 2.208 29.776ZM17.328 24.256C17.584 22.912 17.808 21.68 18 20.56C18.192 19.44 18.336 18.448 18.432 17.584C18.496 17.136 18.528 16.752 18.528 16.432C18.56 16.08 18.56 15.776 18.528 15.52C18.464 15.2 18.432 15.024 18.432 14.992C18.4 14.928 18.368 14.88 18.336 14.848H18.288C18.128 14.88 17.856 15.056 17.472 15.376C17.12 15.664 16.624 16.256 15.984 17.152C15.344 18.048 14.56 19.344 13.632 21.04C12.736 22.704 11.648 24.928 10.368 27.712C11.328 27.552 12.336 27.408 13.392 27.28C14.48 27.12 15.632 27.008 16.848 26.944L17.328 24.256ZM30.774 32.512C30.614 33.824 30.678 34.656 30.966 35.008C31.286 35.36 31.702 35.44 32.214 35.248C32.758 35.024 33.35 34.624 33.99 34.048C34.662 33.472 35.286 32.896 35.862 32.32C36.534 31.68 37.094 31.104 37.542 30.592C37.99 30.048 38.214 29.76 38.214 29.728C38.278 29.632 38.374 29.584 38.502 29.584C38.662 29.552 38.79 29.584 38.886 29.68C39.142 29.872 39.158 30.096 38.934 30.352C38.934 30.384 38.71 30.672 38.262 31.216C37.814 31.728 37.238 32.32 36.534 32.992C36.31 33.248 35.99 33.568 35.574 33.952C35.158 34.336 34.71 34.704 34.23 35.056C33.782 35.408 33.318 35.728 32.838 36.016C32.39 36.272 31.99 36.4 31.638 36.4H31.302C30.726 36.4 30.342 36.144 30.15 35.632C29.958 35.088 29.862 34.464 29.862 33.76C29.862 33.056 29.91 32.368 30.006 31.696C30.134 30.992 30.23 30.48 30.294 30.16C30.39 29.808 30.47 29.456 30.534 29.104C30.63 28.72 30.71 28.384 30.774 28.096C30.806 27.904 30.806 27.744 30.774 27.616C30.774 27.488 30.774 27.392 30.774 27.328C30.742 27.232 30.726 27.152 30.726 27.088C30.63 26.992 30.518 26.976 30.39 27.04C29.814 27.104 29.222 27.44 28.614 28.048C28.038 28.624 27.494 29.296 26.982 30.064C26.47 30.832 26.006 31.616 25.59 32.416C25.174 33.184 24.87 33.808 24.678 34.288C24.582 34.544 24.39 34.624 24.102 34.528C23.782 34.464 23.686 34.272 23.814 33.952L25.398 28C25.462 27.712 25.654 27.6 25.974 27.664C26.262 27.728 26.374 27.92 26.31 28.24L25.782 30.112C27.35 27.616 28.838 26.272 30.246 26.08C30.566 26.016 30.806 26.032 30.966 26.128C31.158 26.224 31.302 26.32 31.398 26.416C31.75 26.768 31.862 27.312 31.734 28.048C31.638 28.752 31.462 29.536 31.206 30.4C31.142 30.752 31.062 31.12 30.966 31.504C30.87 31.856 30.806 32.192 30.774 32.512ZM52.29 32.992C51.522 33.92 50.706 34.704 49.842 35.344C49.01 35.952 48.21 36.304 47.442 36.4C46.706 36.496 46.034 36.288 45.426 35.776C44.85 35.264 44.434 34.32 44.178 32.944C44.146 32.72 44.098 32.432 44.034 32.08C44.002 31.728 43.97 31.36 43.938 30.976C43.906 30.592 43.874 30.208 43.842 29.824C43.842 29.44 43.842 29.104 43.842 28.816C43.074 30.032 42.322 31.12 41.586 32.08C41.074 32.752 40.626 33.28 40.242 33.664C39.89 34.048 39.57 34.352 39.282 34.576C39.026 34.768 38.802 34.896 38.61 34.96C38.418 35.024 38.258 35.056 38.13 35.056H38.034C37.394 35.056 36.978 34.912 36.786 34.624C36.626 34.304 36.53 34.064 36.498 33.904C36.434 33.296 36.61 32.608 37.026 31.84C37.442 31.04 37.826 30.4 38.178 29.92C38.338 29.696 38.53 29.44 38.754 29.152C38.978 28.832 39.218 28.544 39.474 28.288C39.73 28 39.97 27.76 40.194 27.568C40.45 27.376 40.674 27.248 40.866 27.184C41.25 27.088 41.554 27.104 41.778 27.232C42.002 27.328 42.162 27.424 42.258 27.52C42.546 27.808 42.69 28.256 42.69 28.864L44.034 26.8C44.066 26.512 44.098 26.224 44.13 25.936C44.162 25.648 44.21 25.36 44.274 25.072C44.498 23.856 44.786 22.592 45.138 21.28C45.49 19.936 45.906 18.56 46.386 17.152C46.77 16.064 47.202 14.944 47.682 13.792C48.162 12.608 48.642 11.52 49.122 10.528C49.634 9.504 50.13 8.624 50.61 7.888C51.122 7.12 51.602 6.592 52.05 6.304C52.338 6.112 52.578 6.048 52.77 6.112C52.994 6.144 53.154 6.192 53.25 6.256C53.89 6.736 53.89 8.064 53.25 10.24C52.962 11.136 52.578 12.176 52.098 13.36C51.618 14.512 51.058 15.744 50.418 17.056C49.778 18.368 49.074 19.744 48.306 21.184C47.57 22.592 46.802 23.984 46.002 25.36C45.842 25.68 45.666 25.984 45.474 26.272C45.282 26.56 45.106 26.832 44.946 27.088L44.85 28.144C44.818 28.592 44.818 29.072 44.85 29.584C44.882 30.096 44.914 30.608 44.946 31.12C45.01 31.6 45.074 32.064 45.138 32.512C45.234 32.928 45.314 33.264 45.378 33.52C45.634 34.448 45.986 35.04 46.434 35.296C46.882 35.52 47.378 35.536 47.922 35.344C48.466 35.12 49.042 34.752 49.65 34.24C50.258 33.728 50.834 33.184 51.378 32.608C51.922 32 52.418 31.44 52.866 30.928C53.346 30.384 53.714 29.984 53.97 29.728C54.034 29.632 54.13 29.584 54.258 29.584C54.418 29.552 54.546 29.584 54.642 29.68C54.898 29.872 54.914 30.096 54.69 30.352C54.69 30.384 54.466 30.672 54.018 31.216C53.57 31.728 52.994 32.32 52.29 32.992ZM48.45 14.416C47.714 16.176 47.09 17.92 46.578 19.648C46.066 21.376 45.65 23.024 45.33 24.592C46.098 23.248 46.85 21.888 47.586 20.512C48.322 19.136 48.994 17.808 49.602 16.528C50.21 15.248 50.738 14.048 51.186 12.928C51.666 11.808 52.034 10.816 52.29 9.952C52.642 8.8 52.802 8.048 52.77 7.696C52.77 7.312 52.754 7.088 52.722 7.024C52.658 7.056 52.498 7.184 52.242 7.408C51.986 7.632 51.586 8.176 51.042 9.04C50.626 9.712 50.194 10.512 49.746 11.44C49.33 12.368 48.898 13.36 48.45 14.416ZM42.018 29.872C41.73 29.776 41.618 29.568 41.682 29.248C41.81 28.8 41.778 28.448 41.586 28.192C41.522 28.128 41.442 28.096 41.346 28.096C41.25 28.096 41.17 28.112 41.106 28.144C40.978 28.176 40.706 28.4 40.29 28.816C39.906 29.2 39.442 29.76 38.898 30.496C38.418 31.2 38.034 31.856 37.746 32.464C37.49 33.04 37.394 33.472 37.458 33.76C37.49 33.824 37.522 33.904 37.554 34C37.618 34.064 37.794 34.096 38.082 34.096C38.114 34.096 38.178 34.08 38.274 34.048C38.402 33.984 38.578 33.872 38.802 33.712C39.026 33.552 39.298 33.296 39.618 32.944C39.938 32.592 40.338 32.112 40.818 31.504L42.018 29.872ZM56.664 36.256C55.384 36.256 54.424 36.048 53.784 35.632C53.144 35.184 52.744 34.64 52.584 34C52.456 33.328 52.536 32.592 52.824 31.792C53.144 30.992 53.608 30.24 54.216 29.536C54.824 28.832 55.528 28.224 56.328 27.712C57.16 27.2 58.04 26.88 58.968 26.752C59.576 26.752 59.992 26.832 60.216 26.992C60.44 27.152 60.536 27.36 60.504 27.616C60.472 27.84 60.36 28.096 60.168 28.384C59.976 28.64 59.784 28.896 59.592 29.152C59.304 29.536 58.92 29.952 58.44 30.4C57.96 30.848 57.448 31.264 56.904 31.648C56.36 32 55.816 32.304 55.272 32.56C54.728 32.816 54.216 32.96 53.736 32.992H53.688C53.592 33.632 53.752 34.176 54.168 34.624C54.616 35.072 55.432 35.296 56.616 35.296C57.416 35.296 58.248 35.008 59.112 34.432C59.976 33.856 60.808 33.152 61.608 32.32C62.28 31.68 62.84 31.104 63.288 30.592C63.736 30.048 63.96 29.76 63.96 29.728C64.024 29.632 64.12 29.584 64.248 29.584C64.408 29.552 64.536 29.584 64.632 29.68C64.888 29.872 64.904 30.096 64.68 30.352C64.68 30.384 64.456 30.672 64.008 31.216C63.56 31.728 62.984 32.32 62.28 32.992C61.352 33.92 60.376 34.704 59.352 35.344C58.36 35.952 57.464 36.256 56.664 36.256ZM58.968 27.664C58.488 27.76 57.992 27.952 57.48 28.24C56.968 28.496 56.472 28.832 55.992 29.248C55.544 29.664 55.144 30.112 54.792 30.592C54.44 31.072 54.168 31.552 53.976 32.032C54.232 31.968 54.504 31.888 54.792 31.792C55.08 31.664 55.4 31.488 55.752 31.264C56.2 31.008 56.648 30.688 57.096 30.304C57.576 29.92 57.992 29.536 58.344 29.152C58.728 28.704 58.968 28.368 59.064 28.144C59.192 27.92 59.256 27.776 59.256 27.712C59.224 27.712 59.192 27.712 59.16 27.712C59.128 27.68 59.064 27.664 58.968 27.664ZM73.4164 25.168C72.3924 24.816 71.4164 24.832 70.4884 25.216C69.5604 25.568 68.6804 26.144 67.8484 26.944C67.0484 27.744 66.3124 28.656 65.6404 29.68C65.0004 30.704 64.4404 31.68 63.9604 32.608C63.5124 33.504 63.1444 34.272 62.8564 34.912C62.6004 35.552 62.4724 35.888 62.4724 35.92C62.4084 36.144 62.2644 36.256 62.0404 36.256C61.9764 36.256 61.9284 36.24 61.8964 36.208C61.6084 36.144 61.4964 35.952 61.5604 35.632L64.4884 24.592C64.5204 24.464 64.5844 24.368 64.6804 24.304C64.8084 24.208 64.9364 24.192 65.0644 24.256C65.1924 24.288 65.2884 24.368 65.3524 24.496C65.4484 24.592 65.4644 24.704 65.4004 24.832L63.8164 30.88C63.9764 30.56 64.1524 30.256 64.3444 29.968C64.5364 29.68 64.7284 29.376 64.9204 29.056C66.1684 27.2 67.4324 25.856 68.7124 25.024C70.3764 23.936 72.0564 23.68 73.7524 24.256C74.0724 24.384 74.1684 24.592 74.0404 24.88C73.9124 25.2 73.7044 25.296 73.4164 25.168ZM81.4118 48.64C80.4518 48.64 79.5718 48.512 78.7718 48.256C78.0038 48.032 77.4758 47.664 77.1878 47.152C77.0278 46.896 76.9638 46.544 76.9958 46.096C77.0278 45.648 77.3478 45.104 77.9558 44.464C79.3958 43.024 80.9318 41.728 82.5638 40.576C84.1958 39.424 85.8278 38.336 87.4598 37.312C87.3638 36.608 87.2838 35.904 87.2198 35.2C87.1558 34.464 87.0918 33.744 87.0278 33.04C86.6438 33.36 86.1958 33.68 85.6838 34C84.6598 34.608 83.4918 35.104 82.1797 35.488C80.8998 35.84 79.5878 36.176 78.2438 36.496C77.2198 36.752 76.1958 37.008 75.1718 37.264C74.1798 37.52 73.2358 37.84 72.3398 38.224C72.2758 38.704 72.2438 39.152 72.2438 39.568C72.2438 39.952 72.2438 40.304 72.2438 40.624C72.2438 41.904 71.9238 43.04 71.2838 44.032C70.7078 44.96 70.0197 45.568 69.2197 45.856C68.8357 46.016 68.4997 46.096 68.2117 46.096C67.7317 46.096 67.3157 45.92 66.9637 45.568C66.8677 45.472 66.7717 45.328 66.6758 45.136C66.5477 44.912 66.4837 44.64 66.4837 44.32C66.4517 44 66.4837 43.616 66.5797 43.168C66.6437 42.72 66.8037 42.192 67.0597 41.584C67.5077 40.656 68.1157 39.872 68.8837 39.232C69.6197 38.592 70.4677 38.048 71.4277 37.6C71.4918 37.056 71.5398 36.512 71.5718 35.968C71.6358 35.392 71.7158 34.816 71.8118 34.24C72.3558 30.816 73.1078 28.72 74.0678 27.952C74.4838 27.6 74.9318 27.472 75.4118 27.568C75.7318 27.632 75.8598 27.808 75.7958 28.096C75.7318 28.416 75.5558 28.544 75.2678 28.48C75.2038 28.48 75.1238 28.496 75.0278 28.528C74.9318 28.528 74.8198 28.576 74.6918 28.672C74.3718 28.928 74.0838 29.36 73.8278 29.968C73.6038 30.576 73.3958 31.28 73.2038 32.08C73.0118 32.848 72.8518 33.68 72.7238 34.576C72.5958 35.472 72.4998 36.336 72.4358 37.168C73.2998 36.816 74.2118 36.528 75.1718 36.304C76.1318 36.048 77.0918 35.792 78.0518 35.536C79.3958 35.216 80.6758 34.88 81.8918 34.528C83.1398 34.176 84.2438 33.728 85.2038 33.184C85.9078 32.8 86.4838 32.336 86.9318 31.792C86.8998 29.744 87.1718 28.432 87.7478 27.856C87.9398 27.664 88.2118 27.568 88.5638 27.568C88.5958 27.536 88.6438 27.52 88.7078 27.52C88.8358 27.52 88.9478 27.568 89.0438 27.664L89.1878 27.904V28V28.096C89.1238 29.696 88.7078 31.024 87.9398 32.08C87.9398 32.208 87.9398 32.352 87.9398 32.512C87.9398 32.64 87.9558 32.784 87.9878 32.944C88.0198 33.552 88.0678 34.176 88.1318 34.816C88.1958 35.456 88.2598 36.096 88.3238 36.736L89.2838 36.16C91.1078 35.008 92.7558 33.92 94.2278 32.896C95.6998 31.872 96.7558 30.848 97.3958 29.824C97.5878 29.568 97.8118 29.52 98.0677 29.68C98.3238 29.872 98.3718 30.096 98.2118 30.352C97.4758 31.472 96.3558 32.56 94.8518 33.616C93.3798 34.672 91.6998 35.792 89.8118 36.976L88.4678 37.792L88.7558 40.048C88.8838 40.912 88.9798 41.68 89.0438 42.352C89.1398 42.992 89.1878 43.488 89.1878 43.84C89.1878 44.864 88.7878 45.744 87.9878 46.48C87.2198 47.248 86.1158 47.824 84.6758 48.208C83.6518 48.496 82.5638 48.64 81.4118 48.64ZM87.6038 38.32C86.0678 39.312 84.5158 40.368 82.9478 41.488C81.4118 42.576 79.9718 43.792 78.6278 45.136C78.4038 45.392 78.2118 45.648 78.0518 45.904C77.8918 46.16 77.8758 46.416 78.0038 46.672C78.1318 46.896 78.4038 47.088 78.8198 47.248C79.2358 47.408 79.7318 47.52 80.3078 47.584C80.9158 47.68 81.5718 47.696 82.2758 47.632C82.9798 47.6 83.6998 47.488 84.4358 47.296C84.7238 47.232 85.0758 47.12 85.4918 46.96C85.9398 46.8 86.3558 46.576 86.7398 46.288C87.1558 46 87.5078 45.664 87.7958 45.28C88.0838 44.864 88.2278 44.384 88.2278 43.84C88.2278 43.552 88.1798 43.072 88.0838 42.4C88.0198 41.728 87.9398 40.976 87.8438 40.144C87.7798 39.856 87.7318 39.568 87.6998 39.28C87.6678 38.992 87.6358 38.672 87.6038 38.32ZM71.3318 38.704C69.6677 39.568 68.5477 40.656 67.9717 41.968C67.5237 42.992 67.3477 43.728 67.4437 44.176C67.5077 44.592 67.5717 44.832 67.6357 44.896C67.8917 45.152 68.3077 45.184 68.8837 44.992C69.4597 44.736 70.0038 44.24 70.5158 43.504C71.0278 42.736 71.2838 41.776 71.2838 40.624C71.2838 40.4 71.2838 40.128 71.2838 39.808C71.2838 39.488 71.2998 39.12 71.3318 38.704ZM100.164 36.256C98.884 36.256 97.924 36.048 97.284 35.632C96.644 35.184 96.244 34.64 96.084 34C95.956 33.328 96.036 32.592 96.324 31.792C96.644 30.992 97.108 30.24 97.716 29.536C98.324 28.832 99.028 28.224 99.828 27.712C100.66 27.2 101.54 26.88 102.468 26.752C103.076 26.752 103.492 26.832 103.716 26.992C103.94 27.152 104.036 27.36 104.004 27.616C103.972 27.84 103.86 28.096 103.668 28.384C103.476 28.64 103.284 28.896 103.092 29.152C102.804 29.536 102.42 29.952 101.94 30.4C101.46 30.848 100.948 31.264 100.404 31.648C99.86 32 99.316 32.304 98.772 32.56C98.228 32.816 97.716 32.96 97.236 32.992H97.188C97.092 33.632 97.252 34.176 97.668 34.624C98.116 35.072 98.932 35.296 100.116 35.296C100.916 35.296 101.748 35.008 102.612 34.432C103.476 33.856 104.308 33.152 105.108 32.32C105.78 31.68 106.34 31.104 106.788 30.592C107.236 30.048 107.46 29.76 107.46 29.728C107.524 29.632 107.62 29.584 107.748 29.584C107.908 29.552 108.036 29.584 108.132 29.68C108.388 29.872 108.404 30.096 108.18 30.352C108.18 30.384 107.956 30.672 107.508 31.216C107.06 31.728 106.484 32.32 105.78 32.992C104.852 33.92 103.876 34.704 102.852 35.344C101.86 35.952 100.964 36.256 100.164 36.256ZM102.468 27.664C101.988 27.76 101.492 27.952 100.98 28.24C100.468 28.496 99.972 28.832 99.492 29.248C99.044 29.664 98.644 30.112 98.292 30.592C97.94 31.072 97.668 31.552 97.476 32.032C97.732 31.968 98.004 31.888 98.292 31.792C98.58 31.664 98.9 31.488 99.252 31.264C99.7 31.008 100.148 30.688 100.596 30.304C101.076 29.92 101.492 29.536 101.844 29.152C102.228 28.704 102.468 28.368 102.564 28.144C102.692 27.92 102.756 27.776 102.756 27.712C102.724 27.712 102.692 27.712 102.66 27.712C102.628 27.68 102.564 27.664 102.468 27.664ZM113.508 32.512C113.348 33.824 113.412 34.656 113.7 35.008C114.02 35.36 114.436 35.44 114.948 35.248C115.492 35.024 116.084 34.624 116.724 34.048C117.396 33.472 118.02 32.896 118.596 32.32C119.268 31.68 119.828 31.104 120.276 30.592C120.724 30.048 120.948 29.76 120.948 29.728C121.012 29.632 121.108 29.584 121.236 29.584C121.396 29.552 121.524 29.584 121.62 29.68C121.876 29.872 121.892 30.096 121.668 30.352C121.668 30.384 121.444 30.672 120.996 31.216C120.548 31.728 119.972 32.32 119.268 32.992C119.044 33.248 118.724 33.568 118.308 33.952C117.892 34.336 117.444 34.704 116.964 35.056C116.516 35.408 116.052 35.728 115.572 36.016C115.124 36.272 114.724 36.4 114.372 36.4H114.036C113.46 36.4 113.076 36.144 112.884 35.632C112.692 35.088 112.596 34.464 112.596 33.76C112.596 33.056 112.644 32.368 112.74 31.696C112.868 30.992 112.964 30.48 113.028 30.16C113.124 29.808 113.204 29.456 113.268 29.104C113.364 28.72 113.444 28.384 113.508 28.096C113.54 27.904 113.54 27.744 113.508 27.616C113.508 27.488 113.508 27.392 113.508 27.328C113.476 27.232 113.46 27.152 113.46 27.088C113.364 26.992 113.252 26.976 113.124 27.04C112.548 27.104 111.956 27.44 111.348 28.048C110.772 28.624 110.228 29.296 109.716 30.064C109.204 30.832 108.74 31.616 108.324 32.416C107.908 33.184 107.604 33.808 107.412 34.288C107.316 34.544 107.124 34.624 106.836 34.528C106.516 34.464 106.42 34.272 106.548 33.952L108.132 28C108.196 27.712 108.388 27.6 108.708 27.664C108.996 27.728 109.108 27.92 109.044 28.24L108.516 30.112C110.084 27.616 111.572 26.272 112.98 26.08C113.3 26.016 113.54 26.032 113.7 26.128C113.892 26.224 114.036 26.32 114.132 26.416C114.484 26.768 114.596 27.312 114.468 28.048C114.372 28.752 114.196 29.536 113.94 30.4C113.876 30.752 113.796 31.12 113.7 31.504C113.604 31.856 113.54 32.192 113.508 32.512ZM136.455 44.56C135.367 44.56 134.519 44.128 133.911 43.264C132.215 41.12 131.943 36.224 133.095 28.576C133.287 27.2 133.511 25.872 133.767 24.592C134.023 23.312 134.247 22.176 134.439 21.184C134.663 20.192 134.839 19.408 134.967 18.832C135.127 18.224 135.207 17.92 135.207 17.92C135.303 17.6 135.511 17.488 135.831 17.584C136.119 17.648 136.231 17.84 136.167 18.16C136.167 18.16 136.087 18.464 135.927 19.072C135.799 19.648 135.623 20.432 135.399 21.424C135.175 22.384 134.935 23.504 134.679 24.784C134.455 26.032 134.247 27.344 134.055 28.72C133.703 30.992 133.495 32.944 133.431 34.576C133.367 36.176 133.383 37.536 133.479 38.656C133.575 39.744 133.735 40.608 133.959 41.248C134.183 41.888 134.423 42.368 134.679 42.688C135.095 43.296 135.687 43.6 136.455 43.6C136.487 43.568 136.551 43.52 136.647 43.456C136.711 43.392 136.775 43.312 136.839 43.216C136.935 43.12 137.047 42.992 137.175 42.832C137.335 42.576 137.511 42.256 137.703 41.872C137.927 41.488 138.167 41.024 138.423 40.48C138.871 39.488 139.367 38.336 139.911 37.024C140.455 35.712 141.015 34.32 141.591 32.848C142.615 30.288 143.703 27.664 144.855 24.976C146.007 22.256 147.191 19.776 148.407 17.536C149.079 16.288 149.719 15.216 150.327 14.32C150.967 13.424 151.591 12.656 152.199 12.016C153.607 10.512 154.983 9.856 156.327 10.048C156.647 10.112 156.775 10.304 156.711 10.624C156.647 10.944 156.471 11.072 156.183 11.008C154.263 10.72 151.943 13.04 149.223 17.968C148.007 20.176 146.839 22.64 145.719 25.36C144.599 28.048 143.527 30.656 142.503 33.184C141.895 34.72 141.303 36.16 140.727 37.504C140.183 38.848 139.671 40.032 139.191 41.056C138.583 42.304 138.071 43.2 137.655 43.744C137.239 44.288 136.839 44.56 136.455 44.56ZM164.375 30.496C164.375 30.656 164.151 30.832 163.703 31.024C163.287 31.184 162.791 31.344 162.215 31.504C161.639 31.664 161.063 31.808 160.487 31.936C159.911 32.064 159.479 32.144 159.191 32.176L158.807 32.848C157.751 34.384 156.567 35.152 155.255 35.152C154.807 35.152 154.391 34.976 154.007 34.624C153.623 34.272 153.351 33.824 153.191 33.28C153.031 32.64 153.095 32.064 153.383 31.552C153.479 31.296 153.623 31.072 153.815 30.88C154.039 30.656 154.279 30.448 154.535 30.256C154.471 30.096 154.423 29.92 154.391 29.728C154.359 29.504 154.343 29.312 154.343 29.152C154.439 28.288 154.807 27.568 155.447 26.992C155.703 26.768 156.039 26.56 156.455 26.368C156.871 26.144 157.399 26.032 158.039 26.032C159.447 26.096 160.151 26.976 160.151 28.672C160.151 29.056 160.103 29.456 160.007 29.872C159.943 30.288 159.831 30.72 159.671 31.168C160.663 31.04 161.527 30.832 162.263 30.544C162.999 30.256 163.447 30.064 163.607 29.968C163.639 29.936 163.655 29.904 163.655 29.872C163.687 29.84 163.719 29.808 163.751 29.776L163.799 29.728C163.863 29.632 163.959 29.584 164.087 29.584C164.247 29.552 164.375 29.584 164.471 29.68C164.727 29.872 164.743 30.096 164.519 30.352C164.487 30.352 164.471 30.368 164.471 30.4C164.407 30.464 164.375 30.496 164.375 30.496ZM158.615 31.216C158.999 30.352 159.191 29.504 159.191 28.672C159.191 27.552 158.807 26.992 158.039 26.992C157.559 26.992 157.159 27.072 156.839 27.232C156.519 27.392 156.263 27.552 156.071 27.712C155.623 28.128 155.367 28.624 155.303 29.2C155.303 29.648 155.383 29.968 155.543 30.16V30.256C155.863 30.704 156.391 30.992 157.127 31.12C157.383 31.184 157.623 31.216 157.847 31.216C158.103 31.216 158.359 31.216 158.615 31.216ZM158.087 32.176C157.895 32.176 157.703 32.176 157.511 32.176C157.319 32.144 157.143 32.112 156.983 32.08C156.535 32.016 156.151 31.904 155.831 31.744C155.511 31.552 155.239 31.344 155.015 31.12C154.215 31.632 153.911 32.272 154.103 33.04C154.199 33.392 154.343 33.68 154.535 33.904C154.759 34.096 154.999 34.192 155.255 34.192C155.543 34.192 155.927 34.096 156.407 33.904C156.919 33.68 157.447 33.152 157.991 32.32L158.087 32.176ZM176.762 36.4C175.482 36.4 174.538 35.856 173.93 34.768C173.418 33.936 173.194 32.768 173.258 31.264L172.826 31.696C170.458 34.064 168.522 35.248 167.018 35.248C165.866 35.248 165.018 34.752 164.474 33.76C163.93 32.736 163.722 31.328 163.85 29.536V29.488C163.85 29.328 163.85 29.168 163.85 29.008C163.882 28.816 163.914 28.624 163.946 28.432C164.074 27.376 164.282 26.224 164.57 24.976C164.89 23.728 165.274 22.384 165.722 20.944C166.138 19.632 166.602 18.304 167.114 16.96C167.658 15.584 168.218 14.24 168.794 12.928C169.402 11.616 170.026 10.352 170.666 9.136C171.306 7.888 171.946 6.752 172.586 5.728C173.098 4.896 173.578 4.16 174.026 3.52C174.506 2.88 174.954 2.336 175.37 1.888C176.362 0.863998 177.21 0.367998 177.914 0.399998C178.266 0.399998 178.522 0.479998 178.682 0.639997C178.842 0.767998 178.97 0.911998 179.066 1.072C179.162 1.296 179.21 1.632 179.21 2.08C179.242 2.528 179.13 3.2 178.874 4.096C178.618 4.96 178.154 6.128 177.482 7.6C176.842 9.04 175.914 10.864 174.698 13.072C173.962 14.416 173.194 15.76 172.394 17.104C171.626 18.448 170.858 19.76 170.09 21.04C169.354 22.32 168.634 23.52 167.93 24.64C167.226 25.728 166.618 26.704 166.106 27.568L164.81 29.68C164.714 31.344 164.874 32.544 165.29 33.28C165.674 33.952 166.25 34.288 167.018 34.288C167.754 34.288 168.65 33.904 169.706 33.136C170.794 32.336 171.994 31.216 173.306 29.776C173.498 28.048 173.93 26.112 174.602 23.968C175.242 21.792 176.058 19.584 177.05 17.344C178.042 15.072 179.098 13.04 180.218 11.248C181.21 9.68 182.106 8.464 182.906 7.6C183.898 6.608 184.762 6.128 185.498 6.16C185.594 6.16 185.706 6.176 185.834 6.208C185.994 6.24 186.138 6.32 186.266 6.448C186.426 6.576 186.554 6.768 186.65 7.024C186.746 7.248 186.794 7.552 186.794 7.936C186.794 8.384 186.714 8.88 186.554 9.424C186.426 9.968 186.25 10.544 186.026 11.152C185.802 11.76 185.546 12.368 185.258 12.976C185.002 13.584 184.746 14.144 184.49 14.656C183.786 16.064 182.986 17.536 182.09 19.072C181.194 20.608 180.234 22.144 179.21 23.68C177.482 26.24 175.834 28.4 174.266 30.16C174.266 30.192 174.25 30.224 174.218 30.256C174.09 32.048 174.266 33.408 174.746 34.336C175.194 35.072 175.866 35.44 176.762 35.44C177.306 35.44 177.93 35.216 178.634 34.768C179.37 34.32 180.09 33.792 180.794 33.184C181.498 32.576 182.154 31.952 182.762 31.312C183.37 30.672 183.834 30.16 184.154 29.776C184.346 29.52 184.57 29.488 184.826 29.68C185.082 29.872 185.114 30.096 184.922 30.352C184.89 30.416 184.602 30.752 184.058 31.36C183.514 31.936 182.842 32.592 182.042 33.328C179.866 35.376 178.106 36.4 176.762 36.4ZM177.866 1.36C177.514 1.36 176.97 1.712 176.234 2.416C175.498 3.12 174.57 4.384 173.45 6.208C172.81 7.232 172.17 8.352 171.53 9.568C170.922 10.752 170.314 12 169.706 13.312C169.13 14.592 168.57 15.92 168.026 17.296C167.514 18.64 167.05 19.952 166.634 21.232C165.866 23.504 165.338 25.568 165.05 27.424L165.29 27.088C165.802 26.224 166.394 25.232 167.066 24.112C167.77 22.992 168.506 21.808 169.274 20.56C170.042 19.28 170.81 17.968 171.578 16.624C172.378 15.28 173.146 13.952 173.882 12.64C174.682 11.168 175.37 9.84 175.946 8.656C176.554 7.44 177.034 6.368 177.386 5.44C177.674 4.736 177.882 4.144 178.01 3.664C178.138 3.184 178.218 2.8 178.25 2.512C178.314 2.192 178.33 1.968 178.298 1.84C178.266 1.68 178.234 1.568 178.202 1.504C178.138 1.408 178.026 1.36 177.866 1.36ZM185.402 7.12C185.274 7.12 185.066 7.184 184.778 7.312C184.49 7.44 184.09 7.76 183.578 8.272C182.81 9.072 181.962 10.24 181.034 11.776C180.49 12.64 179.946 13.584 179.402 14.608C178.89 15.6 178.394 16.64 177.914 17.728C177.434 18.816 176.986 19.904 176.57 20.992C176.186 22.08 175.834 23.152 175.514 24.208C175.034 25.744 174.698 27.152 174.506 28.432C175.146 27.664 175.786 26.848 176.426 25.984C177.066 25.088 177.722 24.144 178.394 23.152C179.45 21.616 180.426 20.08 181.322 18.544C182.218 16.976 183.002 15.52 183.674 14.176C184.346 12.8 184.874 11.568 185.258 10.48C185.642 9.392 185.834 8.528 185.834 7.888C185.834 7.504 185.786 7.28 185.69 7.216C185.594 7.152 185.514 7.12 185.45 7.12H185.402Z" fill="black"/>
</svg>
