<svg width="40" height="40" viewBox="0 0 40 40" fill="none" xmlns="http://www.w3.org/2000/svg">
<path d="M28.4683 14.7134C27.8321 14.9948 27.1574 15.1796 26.4666 15.2617C27.1947 14.8263 27.7397 14.1409 27.9999 13.3334C27.3166 13.7401 26.5674 14.0251 25.7866 14.1792C25.2621 13.618 24.5669 13.2459 23.809 13.1205C23.0512 12.9952 22.2732 13.1238 21.596 13.4863C20.9187 13.8487 20.3802 14.4248 20.0642 15.1249C19.7481 15.825 19.6722 16.6099 19.8483 17.3576C18.4625 17.2881 17.1069 16.928 15.8693 16.3006C14.6318 15.6732 13.54 14.7926 12.6649 13.7159C12.3552 14.2479 12.1924 14.8527 12.1933 15.4684C12.1933 16.6767 12.8083 17.7442 13.7433 18.3692C13.1899 18.3518 12.6488 18.2024 12.1649 17.9334V17.9767C12.1651 18.7815 12.4436 19.5614 12.9531 20.1843C13.4627 20.8071 14.172 21.2346 14.9608 21.3942C14.4471 21.5334 13.9085 21.5539 13.3858 21.4542C13.6081 22.1469 14.0416 22.7527 14.6254 23.1868C15.2092 23.6209 15.9142 23.8616 16.6416 23.8751C15.9187 24.4428 15.0909 24.8625 14.2057 25.1102C13.3204 25.3579 12.395 25.4286 11.4824 25.3184C13.0755 26.3429 14.93 26.8868 16.8241 26.8851C23.2349 26.8851 26.7408 21.5742 26.7408 16.9684C26.7408 16.8184 26.7366 16.6667 26.7299 16.5184C27.4123 16.0252 28.0013 15.4142 28.4691 14.7142L28.4683 14.7134Z" fill="white"/>
<circle cx="20" cy="20" r="19.5" stroke="#E2E2E2"/>
</svg>
