<svg width="40" height="40" viewBox="0 0 40 40" fill="none" xmlns="http://www.w3.org/2000/svg">
<circle cx="20" cy="20" r="19.5" stroke="#E2E2E2"/>
<path d="M11.708 20.8333H16.2722C16.4148 23.4723 17.256 26.0261 18.7097 28.2333C16.8888 27.9472 15.214 27.0659 13.9472 25.727C12.6804 24.3881 11.8929 22.6672 11.708 20.8333ZM11.708 19.1666C11.8929 17.3327 12.6804 15.6117 13.9472 14.2729C15.214 12.934 16.8888 12.0526 18.7097 11.7666C17.256 13.9738 16.4148 16.5276 16.2722 19.1666H11.708ZM28.2913 19.1666H23.7272C23.5846 16.5276 22.7434 13.9738 21.2897 11.7666C23.1106 12.0526 24.7853 12.934 26.0522 14.2729C27.319 15.6117 28.1064 17.3327 28.2913 19.1666ZM28.2913 20.8333C28.1064 22.6672 27.319 24.3881 26.0522 25.727C24.7853 27.0659 23.1106 27.9472 21.2897 28.2333C22.7434 26.0261 23.5846 23.4723 23.7272 20.8333H28.2922H28.2913ZM17.9413 20.8333H22.058C21.9208 23.0828 21.2124 25.2603 19.9997 27.1599C18.7869 25.2603 18.0785 23.0828 17.9413 20.8333ZM17.9413 19.1666C18.0785 16.917 18.7869 14.7396 19.9997 12.8399C21.2124 14.7396 21.9208 16.917 22.058 19.1666H17.9413Z" fill="white"/>
</svg>
